<svg width="50" height="50" viewBox="0 0 50 50" fill="none" xmlns="http://www.w3.org/2000/svg">
<path d="M24.6572 0C38.2752 0 49.3154 11.1929 49.3154 25C49.3154 38.8071 38.2752 50 24.6572 50C11.0394 49.9998 5.08375e-07 38.807 0 25C0 11.193 11.0394 0.000193881 24.6572 0ZM24.6562 11.667C21.0871 11.667 20.6387 11.6824 19.2363 11.7471C17.8366 11.8121 16.881 12.0366 16.0449 12.3662C15.18 12.7068 14.4458 13.1629 13.7148 13.9043C12.9834 14.6453 12.5342 15.3891 12.1973 16.2656C11.8712 17.1137 11.649 18.0831 11.5859 19.502C11.5232 20.9242 11.5068 21.379 11.5068 25C11.5068 28.6211 11.5224 29.0748 11.5859 30.4971C11.6503 31.9161 11.8724 32.8848 12.1973 33.7324C12.5334 34.6094 12.9827 35.3536 13.7139 36.0947C14.4446 36.8364 15.1786 37.2932 16.043 37.6338C16.8796 37.9635 17.8357 38.1879 19.2354 38.2529C20.638 38.3176 21.0861 38.334 24.6572 38.334C28.2286 38.334 28.6757 38.3176 30.0781 38.2529C31.4781 38.1879 32.4357 37.9635 33.2725 37.6338C34.1369 37.2933 34.8691 36.8362 35.5996 36.0947C36.3311 35.3537 36.7812 34.61 37.1182 33.7334C37.4414 32.8854 37.6627 31.9159 37.7285 30.4971C37.7915 29.0748 37.8086 28.6211 37.8086 25C37.8086 21.379 37.7915 20.9242 37.7285 19.502C37.6628 18.083 37.4413 17.1142 37.1182 16.2666C36.7812 15.3896 36.3311 14.6454 35.5996 13.9043C34.8682 13.1627 34.1372 12.7065 33.2715 12.3662C32.4332 12.0365 31.4769 11.8121 30.0771 11.7471C28.6746 11.6824 28.2275 11.667 24.6562 11.667Z" fill="#65362A"/>
<path d="M23.4795 14.0691C23.8295 14.0685 24.2204 14.0691 24.6592 14.0691C28.17 14.0691 28.5863 14.0824 29.9727 14.1462C31.2549 14.2057 31.9515 14.4227 32.415 14.6052C33.0285 14.8468 33.4659 15.1358 33.9258 15.6023C34.386 16.0689 34.6713 16.5134 34.9102 17.1355C35.0902 17.6049 35.3049 18.3111 35.3633 19.6111C35.4263 21.0165 35.4395 21.4389 35.4395 24.9968C35.4395 28.5552 35.4263 28.978 35.3633 30.3835C35.3046 31.6832 35.0901 32.3887 34.9102 32.8582C34.6718 33.4804 34.3861 33.924 33.9258 34.3904C33.4657 34.8568 33.0288 35.1458 32.415 35.3875C31.952 35.5708 31.2549 35.787 29.9727 35.8464C28.5866 35.9103 28.17 35.9246 24.6592 35.9246C21.1476 35.9246 20.731 35.9103 19.3447 35.8464C18.0628 35.7864 17.3671 35.569 16.9033 35.3865C16.2896 35.1448 15.8509 34.8561 15.3906 34.3894C14.9304 33.9228 14.6451 33.4796 14.4062 32.8572C14.2263 32.3878 14.0115 31.6823 13.9531 30.3826C13.8901 28.977 13.8779 28.5544 13.8779 24.9939C13.8779 21.4333 13.8901 21.0127 13.9531 19.6072C14.0118 18.3074 14.2263 17.6015 14.4062 17.1316C14.6446 16.5095 14.9304 16.065 15.3906 15.5984C15.8508 15.1318 16.2897 14.8435 16.9033 14.6013C17.3669 14.418 18.0628 14.2011 19.3447 14.1414C20.5579 14.0858 21.0285 14.0689 23.4795 14.0662V14.0691ZM24.6582 18.1531C20.929 18.1534 17.9055 21.2187 17.9053 24.9998C17.9053 28.7812 20.9295 31.8464 24.6592 31.8464C28.3887 31.8463 31.4111 28.7811 31.4111 24.9998C31.4109 21.2185 28.3877 18.1531 24.6582 18.1531ZM31.5176 16.2917C30.7221 16.3735 30.1007 17.0543 30.1006 17.8826C30.1006 18.7659 30.8075 19.4832 31.6787 19.4832C32.5499 19.4831 33.2568 18.7659 33.2568 17.8826C33.2567 16.9994 32.5498 16.283 31.6787 16.283L31.5176 16.2917Z" fill="#65362A"/>
<path d="M24.659 20.5557C27.0799 20.5557 29.0426 22.5454 29.0426 25.0002C29.0426 27.4546 27.0799 29.4446 24.659 29.4446C22.2379 29.4446 20.2754 27.4546 20.2754 25.0002C20.2754 22.5454 22.2379 20.5557 24.659 20.5557V20.5557Z" fill="#65362A"/>
</svg>
