<svg width="50" height="50" viewBox="0 0 50 50" fill="none" xmlns="http://www.w3.org/2000/svg">
<path d="M25.3423 0C38.9603 0 50.0005 11.1929 50.0005 25C50.0005 38.8071 38.9603 50 25.3423 50C11.7244 49.9998 0.685059 38.807 0.685059 25C0.685059 11.193 11.7244 0.000193881 25.3423 0ZM26.1548 9.16699C18.0734 9.16725 11.496 15.8351 11.4927 24.0312C11.4916 26.6513 12.1666 29.2094 13.4497 31.4639L11.3696 39.167L19.1431 37.0996C21.2844 38.2838 23.6953 38.9083 26.1489 38.9092H26.1558C34.2396 38.9056 40.8146 32.2374 40.8179 24.043C40.8194 20.071 39.295 16.3361 36.5269 13.5264C33.7587 10.7165 30.077 9.16871 26.1548 9.16699Z" fill="#65362A"/>
<path d="M26.1597 11.6775C29.4147 11.6786 32.475 12.9651 34.7759 15.3005C37.0767 17.6361 38.3426 20.7412 38.3413 24.0427C38.3384 30.8555 32.8715 36.3982 26.1548 36.3982H26.1499C23.9632 36.3973 21.8187 35.8012 19.9478 34.6755L19.5024 34.408L14.8901 35.6345L16.1216 31.075L15.8315 30.6082C14.6116 28.641 13.9673 26.3667 13.9683 24.032C13.9711 17.2198 19.4378 11.6777 26.1597 11.6775ZM20.9644 17.1667C20.7201 17.1667 20.3226 17.2597 19.9868 17.6316C19.6507 18.0037 18.7046 18.9026 18.7046 20.7302C18.7047 22.5577 20.0166 24.323 20.2007 24.572C20.3838 24.82 22.7843 28.5725 26.4595 30.1814C27.3332 30.564 28.0154 30.7925 28.5474 30.9636C29.4248 31.2463 30.2239 31.2067 30.855 31.1111C31.5589 31.0045 33.0232 30.2121 33.3286 29.3445C33.6337 28.4768 33.6331 27.7327 33.5415 27.5779C33.4498 27.4232 33.2054 27.3301 32.8394 27.1443C32.4723 26.958 30.6728 26.0606 30.3364 25.9363C30.0007 25.8124 29.7564 25.7501 29.5122 26.1218C29.2681 26.4935 28.566 27.3297 28.3521 27.5779C28.1383 27.8257 27.9243 27.8576 27.5581 27.6716C27.1917 27.4857 26.0111 27.0934 24.6118 25.8279C23.5227 24.8429 22.7875 23.6265 22.5737 23.2546C22.36 22.8828 22.5515 22.6811 22.7349 22.4958C22.8996 22.3293 23.1016 22.0622 23.2847 21.8455C23.4676 21.6288 23.5289 21.4738 23.6509 21.2263C23.773 20.9783 23.7112 20.7609 23.6196 20.575C23.5273 20.3871 22.7958 18.5605 22.4907 17.8171C22.1934 17.0931 21.8913 17.1908 21.6665 17.1794C21.4531 17.1686 21.2085 17.1667 20.9644 17.1667Z" fill="#65362A"/>
</svg>
